<?xml version="1.0" encoding="UTF-8"?>
<!-- Generator: visioncortex VTracer 0.6.3 -->
<svg version="1.1" xmlns="http://www.w3.org/2000/svg" width="1280" height="1279">
<path d="M0 0 C1.91 -0 3.81 -0.01 5.72 -0.01 C9.69 -0.02 13.66 -0.02 17.62 -0.01 C21.61 -0.01 25.6 -0.02 29.59 -0.04 C90.84 -0.31 151.86 7.58 210.27 26.64 C213.02 27.53 215.8 28.35 218.57 29.18 C254.59 40.31 290.39 54.91 323.32 73.3 C325.24 74.34 327.16 75.39 329.07 76.43 C329.96 76.91 330.84 77.4 331.75 77.9 C333.4 78.8 335.05 79.68 336.71 80.55 C346.07 85.5 355 91.2 363.97 96.83 C365.89 98.03 367.81 99.22 369.74 100.42 C375.08 103.76 380.19 107.33 385.26 111.08 C388.15 113.17 391.08 115.18 394.04 117.17 C402.26 122.73 410.03 128.69 417.7 134.97 C419.91 136.78 422.15 138.54 424.39 140.3 C433.85 147.88 442.95 155.88 451.88 164.07 C454.02 166.02 456.19 167.92 458.39 169.8 C463.28 174.05 467.78 178.69 472.32 183.3 C475.23 186.21 478.14 189.11 481.07 192.01 C482.44 193.38 483.82 194.74 485.2 196.11 C486.22 197.12 486.22 197.12 487.27 198.15 C491.83 202.7 496.13 207.41 500.32 212.3 C501.45 213.57 502.57 214.84 503.7 216.11 C507.17 220.08 510.48 224.16 513.8 228.25 C516.1 231.04 518.45 233.77 520.83 236.5 C526.36 242.88 531.45 249.4 536.32 256.3 C537.26 257.58 538.2 258.86 539.14 260.14 C554.82 281.5 569.25 303.59 581.96 326.83 C583.34 329.33 584.74 331.83 586.14 334.32 C598.74 356.93 609.82 380.23 619.32 404.3 C619.72 405.3 620.12 406.3 620.52 407.33 C623.83 415.77 626.78 424.32 629.64 432.93 C629.87 433.64 630.11 434.35 630.35 435.08 C636.57 453.82 642.76 472.59 646.44 492.02 C647.04 495.12 647.83 498.11 648.71 501.14 C651.01 509.41 652.36 517.86 653.82 526.3 C653.98 527.18 654.13 528.07 654.29 528.98 C656.74 543.07 658.75 557.12 660.05 571.36 C660.31 574.19 660.61 577.01 660.91 579.83 C666.43 634.09 664.35 690.55 655.32 744.3 C655.14 745.45 654.95 746.59 654.75 747.77 C651.99 764.48 648.53 780.9 644.32 797.3 C644.07 798.32 643.81 799.33 643.55 800.38 C640.14 813.98 636.13 827.32 631.7 840.61 C631.47 841.3 631.24 841.99 631 842.7 C628.01 851.66 624.78 860.51 621.32 869.3 C620.95 870.26 620.59 871.22 620.2 872.2 C600.09 924.36 573.07 973.45 539.78 1018.34 C538.8 1019.66 537.82 1020.99 536.84 1022.31 C530.78 1030.55 524.57 1038.56 517.89 1046.3 C515.54 1049.05 513.27 1051.85 511.01 1054.68 C505.74 1061.15 500.01 1067.18 494.28 1073.24 C492.23 1075.4 490.19 1077.58 488.15 1079.76 C486.75 1081.25 485.35 1082.74 483.95 1084.24 C483.31 1084.92 482.67 1085.61 482.01 1086.31 C476.34 1092.34 470.67 1098.35 464.39 1103.74 C461.4 1106.31 458.59 1108.99 455.82 1111.8 C448.17 1119.52 439.76 1126.25 431.32 1133.06 C428.86 1135.04 426.43 1137.04 424.02 1139.07 C423.07 1139.87 422.12 1140.67 421.14 1141.49 C420.32 1142.18 419.5 1142.88 418.66 1143.59 C416.32 1145.3 416.32 1145.3 413.59 1146.35 C412.47 1146.82 412.47 1146.82 411.32 1147.3 C410.99 1148.29 410.66 1149.28 410.32 1150.3 C408.92 1151.52 408.92 1151.52 407.11 1152.72 C406.12 1153.39 406.12 1153.39 405.11 1154.07 C404.4 1154.54 403.68 1155.01 402.95 1155.49 C401.47 1156.48 399.99 1157.47 398.52 1158.47 C397.43 1159.2 397.43 1159.2 396.32 1159.94 C393.8 1161.66 391.34 1163.47 388.89 1165.3 C381.6 1170.65 373.96 1175.46 366.32 1180.3 C365.25 1180.98 364.18 1181.66 363.08 1182.36 C353.88 1188.11 344.45 1193.46 335 1198.79 C332.5 1200.2 330 1201.63 327.51 1203.06 C299.42 1219 269.29 1231.25 239 1242.32 C236.6 1243.2 234.21 1244.09 231.81 1244.98 C221.3 1248.86 210.6 1251.78 199.78 1254.64 C196.61 1255.49 193.47 1256.43 190.32 1257.36 C174.26 1261.98 157.74 1265.2 141.32 1268.3 C140.43 1268.47 139.54 1268.64 138.62 1268.81 C123.59 1271.62 108.53 1273.69 93.32 1275.3 C91.92 1275.45 91.92 1275.45 90.48 1275.61 C78.48 1276.87 66.51 1277.6 54.45 1277.96 C53.44 1277.99 52.44 1278.02 51.41 1278.05 C50.52 1278.08 49.64 1278.1 48.72 1278.13 C46.4 1278.22 46.4 1278.22 44.51 1278.81 C41.11 1279.58 37.68 1279.44 34.2 1279.43 C33.42 1279.43 32.63 1279.44 31.82 1279.44 C30.17 1279.44 28.52 1279.44 26.86 1279.43 C24.33 1279.43 21.81 1279.43 19.28 1279.44 C17.67 1279.44 16.06 1279.44 14.45 1279.43 C13.32 1279.44 13.32 1279.44 12.16 1279.44 C8.71 1279.42 5.64 1279.24 2.32 1278.3 C0.76 1278.19 -0.81 1278.12 -2.38 1278.09 C-3.32 1278.06 -4.26 1278.04 -5.24 1278.01 C-6.27 1277.98 -7.3 1277.95 -8.36 1277.93 C-53.25 1276.38 -98.45 1269.55 -141.68 1257.3 C-142.47 1257.08 -143.27 1256.85 -144.09 1256.62 C-150.29 1254.89 -156.49 1253.11 -162.68 1251.3 C-163.35 1251.1 -164.03 1250.91 -164.72 1250.7 C-207.38 1238.17 -249.66 1220.43 -288.01 1197.85 C-290.71 1196.28 -293.43 1194.74 -296.16 1193.21 C-310.84 1184.97 -324.96 1176.08 -338.68 1166.3 C-340.03 1165.35 -341.39 1164.4 -342.74 1163.45 C-350.19 1158.23 -357.57 1152.98 -364.68 1147.3 C-366.13 1146.17 -367.59 1145.05 -369.05 1143.93 C-382.13 1133.74 -394.81 1123.06 -406.97 1111.79 C-409.21 1109.73 -411.49 1107.72 -413.8 1105.74 C-418.68 1101.51 -423.15 1096.89 -427.68 1092.3 C-430.55 1089.41 -433.44 1086.55 -436.35 1083.7 C-443.21 1076.94 -449.88 1070.26 -455.78 1062.63 C-457.92 1060 -460.28 1057.69 -462.68 1055.3 C-464.1 1053.63 -465.49 1051.95 -466.86 1050.24 C-470.07 1046.27 -473.32 1042.33 -476.61 1038.43 C-484.43 1029.05 -491.78 1019.37 -498.68 1009.3 C-499.53 1008.07 -500.38 1006.84 -501.23 1005.62 C-510.14 992.78 -518.6 979.68 -526.68 966.3 C-527.17 965.48 -527.67 964.66 -528.18 963.81 C-534.12 953.95 -539.99 944.13 -544.99 933.75 C-547.39 928.85 -549.98 924.05 -552.57 919.25 C-554.84 915.01 -556.83 910.74 -558.68 906.3 C-559.15 905.23 -559.62 904.17 -560.11 903.07 C-562 898.82 -563.84 894.57 -565.68 890.3 C-566.07 889.38 -566.47 888.45 -566.88 887.5 C-580.75 855.06 -593.22 820.29 -599.79 785.58 C-600.39 782.48 -601.18 779.49 -602.06 776.46 C-604.36 768.2 -605.72 759.74 -607.18 751.3 C-607.33 750.42 -607.48 749.53 -607.64 748.62 C-610.05 734.77 -612.12 720.94 -613.34 706.93 C-613.59 704.22 -613.87 701.52 -614.18 698.81 C-616.07 681.19 -616.02 663.58 -615.99 645.88 C-615.99 642.35 -615.99 638.82 -616.01 635.28 C-616.18 602.24 -614.16 569.93 -608.68 537.3 C-608.39 535.58 -608.39 535.58 -608.11 533.83 C-605.34 517.13 -601.88 500.7 -597.68 484.3 C-597.42 483.28 -597.17 482.27 -596.9 481.22 C-593.5 467.69 -589.53 454.4 -585.11 441.18 C-584.89 440.5 -584.66 439.82 -584.43 439.12 C-575.31 411.86 -564.83 384.79 -551.66 359.22 C-550.66 357.26 -549.68 355.29 -548.71 353.32 C-544.33 344.39 -539.61 335.71 -534.67 327.07 C-533.3 324.64 -531.99 322.19 -530.68 319.74 C-514.61 290.26 -494.6 262.74 -473.55 236.65 C-471.66 234.29 -469.82 231.89 -467.99 229.49 C-465.42 226.17 -462.65 223.27 -459.68 220.3 C-457.92 218.09 -456.21 215.85 -454.52 213.58 C-452.4 210.96 -450.09 208.65 -447.68 206.3 C-440.73 199.49 -440.73 199.49 -434.18 192.3 C-427.08 184.04 -419.1 176.74 -410.8 169.71 C-410.2 169.21 -409.6 168.7 -408.99 168.18 C-408.47 167.74 -407.95 167.3 -407.41 166.86 C-406.01 165.6 -404.67 164.28 -403.34 162.94 C-400.57 160.2 -397.67 157.67 -394.68 155.18 C-393.52 154.21 -392.37 153.24 -391.21 152.27 C-390.62 151.78 -390.04 151.29 -389.43 150.78 C-387.73 149.35 -386.04 147.91 -384.36 146.46 C-377.34 140.43 -370.13 134.79 -362.68 129.3 C-359.73 127.08 -356.79 124.86 -353.86 122.64 C-346.2 117.01 -338.34 111.69 -330.43 106.43 C-329.51 105.82 -328.6 105.21 -327.66 104.59 C-308.08 91.59 -308.08 91.59 -299.02 86.61 C-296.73 85.33 -294.46 84.02 -292.2 82.69 C-282.93 77.23 -273.6 72.04 -263.9 67.38 C-261.46 66.19 -259.02 64.99 -256.59 63.79 C-242.23 56.74 -227.6 50.55 -212.78 44.56 C-210.23 43.52 -207.68 42.48 -205.13 41.42 C-196.53 37.89 -187.8 34.92 -178.96 32.05 C-176.72 31.32 -174.5 30.56 -172.27 29.8 C-152.04 22.89 -131.59 17.7 -110.68 13.3 C-109.3 13.01 -109.3 13.01 -107.9 12.71 C-102.17 11.52 -96.43 10.38 -90.68 9.3 C-89.79 9.13 -88.9 8.97 -87.99 8.79 C-72.96 5.98 -57.89 3.87 -42.68 2.3 C-41.55 2.18 -41.55 2.18 -40.4 2.06 C-26.9 0.66 -13.56 -0.01 0 0 Z " fill="#000100" transform="translate(615.67578125,-0.30078125)"/>
<path d="M0 0 C1.32 -0 2.63 -0.01 3.99 -0.01 C5.46 -0.01 6.94 -0 8.41 -0 C9.97 -0 11.52 -0 13.08 -0.01 C17.37 -0.01 21.66 -0.01 25.95 -0 C30.57 -0 35.19 -0.01 39.81 -0.01 C48.87 -0.01 57.92 -0.01 66.98 -0.01 C74.34 -0.01 81.7 -0.01 89.06 -0.01 C90.1 -0.01 91.15 -0.01 92.22 -0.01 C94.35 -0.01 96.47 -0.01 98.59 -0.01 C118.53 -0.01 138.46 -0.01 158.4 -0 C175.52 0 192.64 0 209.76 -0 C229.62 -0.01 249.48 -0.01 269.34 -0.01 C271.46 -0.01 273.57 -0.01 275.69 -0.01 C276.73 -0.01 277.77 -0.01 278.84 -0.01 C286.2 -0.01 293.55 -0.01 300.9 -0.01 C309.86 -0.01 318.81 -0.01 327.77 -0.01 C332.34 -0 336.92 -0 341.49 -0.01 C345.67 -0.01 349.85 -0.01 354.03 -0 C355.55 -0 357.07 -0 358.59 -0 C360.64 -0.01 362.69 -0 364.74 0 C365.89 0 367.03 0 368.21 0 C370.87 0.13 370.87 0.13 372.87 1.13 C372.23 6.76 371.3 12.26 370.18 17.81 C368.18 28.03 366.52 38.29 364.87 48.56 C362.87 61.07 360.78 73.55 358.45 86 C357.73 89.92 357.03 93.84 356.33 97.75 C355.92 100.05 355.51 102.35 355.09 104.65 C354.82 106.17 354.55 107.69 354.28 109.21 C353.91 111.33 353.52 113.46 353.14 115.58 C352.92 116.82 352.7 118.06 352.47 119.33 C351.87 122.13 351.87 122.13 350.87 123.13 C348.86 123.22 346.84 123.25 344.83 123.25 C344.19 123.25 343.55 123.25 342.89 123.25 C340.71 123.26 338.54 123.25 336.36 123.25 C334.8 123.25 333.23 123.25 331.67 123.25 C327.35 123.25 323.03 123.25 318.71 123.24 C314.06 123.24 309.41 123.24 304.76 123.24 C296.7 123.24 288.64 123.24 280.58 123.23 C268.92 123.22 257.26 123.22 245.6 123.22 C226.69 123.22 207.78 123.21 188.87 123.2 C170.49 123.19 152.12 123.19 133.74 123.18 C132.61 123.18 131.48 123.18 130.31 123.18 C124.64 123.18 118.96 123.18 113.28 123.18 C66.14 123.17 19.01 123.15 -28.13 123.13 C-29.29 115.45 -29.29 115.45 -28.63 111.83 C-28.43 110.69 -28.43 110.69 -28.23 109.52 C-28.07 108.71 -27.92 107.91 -27.76 107.08 C-27.61 106.23 -27.46 105.38 -27.3 104.5 C-26.82 101.79 -26.32 99.08 -25.82 96.38 C-25.49 94.57 -25.17 92.77 -24.84 90.97 C-23.95 86.02 -23.04 81.07 -22.13 76.13 C-20.23 65.8 -18.43 55.46 -16.63 45.13 C-11.69 16.82 -11.69 16.82 -10.07 8.63 C-9.91 7.83 -9.75 7.04 -9.59 6.22 C-9.13 4.13 -9.13 4.13 -8.13 1.13 C-5.35 -0.26 -3.11 0 0 0 Z " fill="#F3F5F5" transform="translate(310.12825775146484,363.87415885925293)"/>
<path d="M0 0 C48.12 -0.02 96.24 -0.04 144.36 -0.05 C150.04 -0.05 155.71 -0.05 161.39 -0.05 C162.52 -0.06 163.65 -0.06 164.81 -0.06 C183.13 -0.06 201.45 -0.07 219.77 -0.08 C238.55 -0.09 257.33 -0.09 276.12 -0.09 C287.72 -0.1 299.32 -0.1 310.91 -0.11 C318.86 -0.11 326.8 -0.11 334.75 -0.11 C339.33 -0.11 343.92 -0.11 348.51 -0.12 C352.71 -0.12 356.9 -0.12 361.1 -0.12 C362.62 -0.12 364.15 -0.12 365.67 -0.12 C367.73 -0.13 369.79 -0.13 371.85 -0.12 C373 -0.12 374.15 -0.12 375.33 -0.12 C378 0 378 0 380 1 C379.02 12.5 377.17 23.65 374.82 34.94 C373.4 41.84 372.29 48.66 371.45 55.65 C370.83 60.28 369.87 64.82 368.92 69.4 C367.67 75.52 366.6 81.67 365.5 87.81 C365.28 89.02 365.07 90.23 364.85 91.48 C363.47 99.26 362.13 107.04 360.9 114.85 C360.11 119.79 360.11 119.79 359 122 C233.6 122 108.2 122 -21 122 C-21.92 118.31 -22.05 117.14 -21.33 113.65 C-21.16 112.81 -20.99 111.96 -20.82 111.1 C-20.63 110.2 -20.44 109.3 -20.25 108.38 C-19.87 106.47 -19.49 104.56 -19.11 102.66 C-18.92 101.7 -18.73 100.75 -18.54 99.77 C-17.77 95.81 -17.09 91.85 -16.44 87.88 C-16.26 86.78 -16.26 86.78 -16.07 85.66 C-15.46 81.95 -14.88 78.25 -14.32 74.54 C-12.81 64.53 -10.95 54.63 -8.91 44.71 C-7.14 36.01 -5.7 27.28 -4.43 18.5 C-4.29 17.53 -4.14 16.56 -3.99 15.57 C-3.87 14.73 -3.75 13.89 -3.63 13.03 C-3.05 10.22 -2.29 7.56 -1.46 4.81 C-1.19 3.91 -0.92 3.01 -0.63 2.08 C-0.32 1.05 -0.32 1.05 0 0 Z " fill="#F3F5F5" transform="translate(264,587)"/>
<path d="M0 0 C9.35 -0.05 18.71 -0.08 28.06 -0.1 C32.4 -0.11 36.74 -0.13 41.09 -0.15 C45.28 -0.17 49.46 -0.18 53.65 -0.19 C55.25 -0.19 56.85 -0.2 58.45 -0.21 C60.69 -0.23 62.93 -0.23 65.16 -0.23 C66.44 -0.23 67.71 -0.24 69.03 -0.24 C72 0 72 0 74 2 C74.25 3.97 74.25 3.97 74.25 6.44 C74.25 7.38 74.26 8.33 74.26 9.29 C74.26 10.33 74.25 11.37 74.25 12.45 C74.25 13.55 74.25 14.65 74.25 15.78 C74.26 19.49 74.25 23.2 74.24 26.9 C74.24 29.55 74.25 32.2 74.25 34.85 C74.25 41.31 74.25 47.78 74.24 54.24 C74.23 61.76 74.23 69.28 74.23 76.79 C74.23 90.2 74.22 103.61 74.21 117.03 C74.19 130.05 74.18 143.08 74.19 156.11 C74.19 157.31 74.19 157.31 74.19 158.54 C74.19 159.34 74.19 160.14 74.19 160.96 C74.19 175.78 74.18 190.59 74.17 205.4 C74.17 210.64 74.17 215.89 74.17 221.14 C74.17 227.53 74.16 233.92 74.15 240.31 C74.15 243.57 74.15 246.83 74.15 250.09 C74.15 253.62 74.14 257.15 74.13 260.68 C74.14 261.72 74.14 262.77 74.14 263.84 C74.13 265.25 74.13 265.25 74.13 266.68 C74.13 267.5 74.13 268.31 74.13 269.15 C74 271 74 271 73 272 C70.77 272.1 68.54 272.14 66.31 272.15 C65.26 272.15 65.26 272.15 64.19 272.16 C61.87 272.16 59.55 272.17 57.22 272.17 C55.61 272.17 54.01 272.17 52.4 272.18 C49.02 272.18 45.65 272.19 42.27 272.19 C37.94 272.19 33.61 272.2 29.28 272.22 C25.95 272.23 22.63 272.23 19.31 272.23 C17.71 272.23 16.11 272.23 14.52 272.24 C12.28 272.25 10.05 272.25 7.82 272.24 C5.91 272.25 5.91 272.25 3.97 272.25 C1 272 1 272 -1 270 C-1.25 268.04 -1.25 268.04 -1.25 265.57 C-1.26 264.17 -1.26 264.17 -1.26 262.74 C-1.26 261.7 -1.25 260.67 -1.25 259.6 C-1.25 258.5 -1.25 257.41 -1.25 256.28 C-1.26 252.59 -1.25 248.9 -1.24 245.2 C-1.24 242.57 -1.25 239.93 -1.25 237.29 C-1.25 230.86 -1.25 224.42 -1.24 217.99 C-1.23 210.5 -1.23 203.01 -1.23 195.52 C-1.23 182.17 -1.22 168.81 -1.21 155.46 C-1.19 142.49 -1.18 129.51 -1.19 116.54 C-1.19 115.74 -1.19 114.95 -1.19 114.12 C-1.19 113.32 -1.19 112.53 -1.19 111.71 C-1.19 96.96 -1.18 82.2 -1.17 67.45 C-1.17 62.23 -1.17 57.01 -1.17 51.78 C-1.17 45.42 -1.16 39.06 -1.15 32.69 C-1.15 29.45 -1.15 26.2 -1.15 22.95 C-1.15 19.43 -1.14 15.92 -1.13 12.4 C-1.14 11.37 -1.14 10.33 -1.14 9.26 C-1.13 7.86 -1.13 7.86 -1.13 6.43 C-1.13 5.61 -1.13 4.8 -1.13 3.96 C-1 2 -1 2 0 0 Z " fill="#F3F5F5" transform="translate(856,503)"/>
<path d="M0 0 C9.35 -0.05 18.71 -0.08 28.06 -0.1 C32.4 -0.11 36.74 -0.13 41.09 -0.15 C45.28 -0.17 49.46 -0.18 53.65 -0.19 C55.25 -0.19 56.85 -0.2 58.45 -0.21 C60.69 -0.23 62.93 -0.23 65.16 -0.23 C66.44 -0.23 67.71 -0.24 69.03 -0.24 C72 0 72 0 74 2 C74.25 3.97 74.25 3.97 74.25 6.44 C74.25 7.38 74.26 8.33 74.26 9.29 C74.26 10.33 74.25 11.37 74.25 12.45 C74.25 13.55 74.25 14.65 74.25 15.78 C74.26 19.49 74.25 23.2 74.24 26.9 C74.24 29.55 74.25 32.2 74.25 34.85 C74.25 41.31 74.25 47.78 74.24 54.24 C74.23 61.76 74.23 69.28 74.23 76.79 C74.23 90.2 74.22 103.61 74.21 117.03 C74.19 130.05 74.18 143.08 74.19 156.11 C74.19 157.31 74.19 157.31 74.19 158.54 C74.19 159.34 74.19 160.14 74.19 160.96 C74.19 175.78 74.18 190.59 74.17 205.4 C74.17 210.64 74.17 215.89 74.17 221.14 C74.17 227.53 74.16 233.92 74.15 240.31 C74.15 243.57 74.15 246.83 74.15 250.09 C74.15 253.62 74.14 257.15 74.13 260.68 C74.14 261.72 74.14 262.77 74.14 263.84 C74.13 265.25 74.13 265.25 74.13 266.68 C74.13 267.5 74.13 268.31 74.13 269.15 C74 271 74 271 73 272 C70.77 272.1 68.54 272.14 66.31 272.15 C65.26 272.15 65.26 272.15 64.19 272.16 C61.87 272.16 59.55 272.17 57.22 272.17 C55.61 272.17 54.01 272.17 52.4 272.18 C49.02 272.18 45.65 272.19 42.27 272.19 C37.94 272.19 33.61 272.2 29.28 272.22 C25.95 272.23 22.63 272.23 19.31 272.23 C17.71 272.23 16.11 272.23 14.52 272.24 C12.28 272.25 10.05 272.25 7.82 272.24 C5.91 272.25 5.91 272.25 3.97 272.25 C1 272 1 272 -1 270 C-1.25 268.04 -1.25 268.04 -1.25 265.57 C-1.26 264.17 -1.26 264.17 -1.26 262.74 C-1.26 261.7 -1.25 260.67 -1.25 259.6 C-1.25 258.5 -1.25 257.41 -1.25 256.28 C-1.26 252.59 -1.25 248.9 -1.24 245.2 C-1.24 242.57 -1.25 239.93 -1.25 237.29 C-1.25 230.86 -1.25 224.42 -1.24 217.99 C-1.23 210.5 -1.23 203.01 -1.23 195.52 C-1.23 182.17 -1.22 168.81 -1.21 155.46 C-1.19 142.49 -1.18 129.51 -1.19 116.54 C-1.19 115.74 -1.19 114.95 -1.19 114.12 C-1.19 113.32 -1.19 112.53 -1.19 111.71 C-1.19 96.96 -1.18 82.2 -1.17 67.45 C-1.17 62.23 -1.17 57.01 -1.17 51.78 C-1.17 45.42 -1.16 39.06 -1.15 32.69 C-1.15 29.45 -1.15 26.2 -1.15 22.95 C-1.15 19.43 -1.14 15.92 -1.13 12.4 C-1.14 11.37 -1.14 10.33 -1.14 9.26 C-1.13 7.86 -1.13 7.86 -1.13 6.43 C-1.13 5.61 -1.13 4.8 -1.13 3.96 C-1 2 -1 2 0 0 Z " fill="#F3F5F5" transform="translate(765,503)"/>
<path d="M0 0 C1.88 0 1.88 0 3.8 0 C4.49 0 5.18 0 5.89 -0 C8.18 -0.01 10.47 0.01 12.76 0.02 C14.35 0.02 15.94 0.02 17.52 0.02 C20.85 0.02 24.17 0.03 27.5 0.04 C31.77 0.06 36.05 0.06 40.32 0.06 C43.6 0.06 46.87 0.07 50.15 0.07 C51.72 0.08 53.3 0.08 54.88 0.08 C57.08 0.08 59.27 0.09 61.47 0.1 C63.35 0.11 63.35 0.11 65.27 0.11 C68.07 0.25 68.07 0.25 69.07 1.25 C69.17 2.7 69.19 4.16 69.19 5.62 C69.2 6.57 69.2 7.52 69.2 8.5 C69.2 9.55 69.19 10.61 69.19 11.69 C69.19 12.81 69.19 13.92 69.19 15.06 C69.2 18.82 69.19 22.57 69.18 26.33 C69.18 29.01 69.18 31.69 69.18 34.37 C69.19 40.15 69.18 45.94 69.18 51.73 C69.17 60.09 69.17 68.46 69.16 76.82 C69.16 90.39 69.16 103.96 69.15 117.53 C69.14 130.72 69.13 143.91 69.13 157.09 C69.13 157.9 69.13 158.72 69.12 159.55 C69.12 163.63 69.12 167.7 69.12 171.78 C69.11 205.6 69.09 239.42 69.07 273.25 C59.57 273.27 50.07 273.29 40.57 273.3 C36.16 273.3 31.75 273.31 27.34 273.32 C23.08 273.33 18.83 273.34 14.57 273.34 C12.95 273.34 11.32 273.35 9.7 273.35 C7.43 273.36 5.16 273.36 2.89 273.36 C1.59 273.36 0.3 273.37 -1.04 273.37 C-3.93 273.25 -3.93 273.25 -4.93 272.25 C-5.03 270.81 -5.06 269.36 -5.06 267.91 C-5.06 266.97 -5.06 266.03 -5.07 265.06 C-5.07 264.01 -5.06 262.97 -5.06 261.89 C-5.07 260.79 -5.07 259.69 -5.07 258.55 C-5.08 254.83 -5.08 251.1 -5.07 247.38 C-5.08 244.72 -5.08 242.07 -5.08 239.41 C-5.09 232.92 -5.1 226.44 -5.1 219.95 C-5.1 214.68 -5.1 209.41 -5.1 204.14 C-5.11 189.22 -5.12 174.29 -5.11 159.37 C-5.11 158.56 -5.11 157.76 -5.11 156.93 C-5.11 156.12 -5.11 155.31 -5.11 154.48 C-5.11 141.41 -5.12 128.33 -5.14 115.26 C-5.15 101.85 -5.16 88.44 -5.16 75.03 C-5.16 67.5 -5.16 59.97 -5.17 52.43 C-5.18 46.02 -5.18 39.6 -5.18 33.19 C-5.17 29.91 -5.17 26.64 -5.18 23.36 C-5.19 19.82 -5.18 16.28 -5.18 12.73 C-5.18 11.69 -5.19 10.64 -5.19 9.57 C-5.19 8.62 -5.18 7.68 -5.18 6.71 C-5.18 5.89 -5.18 5.07 -5.18 4.23 C-4.74 0.74 -3.33 0.28 0 0 Z " fill="#4B6972" transform="translate(950.9292144775391,501.7527618408203)"/>
<path d="M0 0 C10.01 8.41 17.1 20.45 18.84 33.49 C18.95 35.01 19.03 36.53 19.09 38.05 C19.13 38.94 19.17 39.83 19.21 40.75 C19.74 63.86 13.06 84.23 -2.83 101.09 C-15.67 113.18 -30.5 116.67 -47.56 116.38 C-60.32 115.84 -71.25 109.22 -79.85 99.96 C-84.46 93.75 -86.11 86.46 -87.91 79.05 C-88.09 78.41 -88.26 77.77 -88.44 77.1 C-92.93 57.39 -84.8 37.17 -75.91 20.05 C-75.25 20.05 -74.59 20.05 -73.91 20.05 C-73.56 18.98 -73.56 18.98 -73.2 17.88 C-67.99 6.44 -55.88 0.64 -44.91 -3.95 C-44.04 -4.33 -43.16 -4.71 -42.26 -5.11 C-28.88 -10.04 -11.76 -7.88 0 0 Z " fill="#F3F5F5" transform="translate(559.91015625,796.94921875)"/>
<path d="M0 0 C0.9 -0.01 1.8 -0.02 2.73 -0.03 C4.2 -0.03 4.2 -0.03 5.7 -0.03 C6.72 -0.03 7.73 -0.03 8.77 -0.04 C10.92 -0.04 13.07 -0.05 15.22 -0.04 C18.48 -0.04 21.73 -0.06 24.98 -0.09 C45.16 -0.15 45.16 -0.15 54.65 3.27 C55.5 3.56 56.35 3.85 57.22 4.15 C64.58 6.81 68.67 11.95 72.59 18.52 C74.58 25.57 74.87 33.55 71.8 40.34 C66.34 49.51 59.01 53.84 49.65 58.27 C50.29 58.45 50.93 58.62 51.59 58.8 C59.3 61.3 62.8 65.23 66.65 72.27 C69.78 81.68 67.48 91.16 63.46 99.84 C54.29 112.17 42.54 116.91 27.65 119.27 C23.1 119.62 18.59 119.63 14.03 119.57 C12.81 119.56 11.59 119.56 10.33 119.55 C6.47 119.54 2.62 119.5 -1.23 119.46 C-3.86 119.45 -6.49 119.43 -9.13 119.42 C-15.54 119.39 -21.94 119.34 -28.35 119.27 C-29.61 115.51 -28.85 112.76 -28.06 108.99 C-27.91 108.27 -27.77 107.55 -27.62 106.81 C-27.14 104.46 -26.65 102.12 -26.16 99.77 C-25.83 98.17 -25.51 96.56 -25.18 94.95 C-23.37 86.08 -21.52 77.23 -19.63 68.38 C-18.49 63.04 -17.48 57.68 -16.49 52.31 C-15.42 46.52 -14.21 40.77 -12.98 35.01 C-11.95 30.21 -10.98 25.4 -10.05 20.58 C-9.83 19.44 -9.61 18.3 -9.39 17.13 C-8.95 14.88 -8.52 12.63 -8.1 10.37 C-7.9 9.35 -7.7 8.33 -7.5 7.27 C-7.33 6.35 -7.15 5.44 -6.97 4.5 C-5.81 0.35 -3.93 0.02 0 0 Z " fill="#F3F5F5" transform="translate(271.35107421875,791.725341796875)"/>
<path d="M0 0 C0.92 -0.01 1.84 -0.02 2.79 -0.03 C4.3 -0.03 4.3 -0.03 5.83 -0.03 C6.86 -0.03 7.9 -0.03 8.96 -0.04 C11.16 -0.04 13.36 -0.05 15.56 -0.04 C18.88 -0.04 22.21 -0.06 25.54 -0.09 C55.15 -0.18 55.15 -0.18 66.31 9.71 C67.05 10.56 67.79 11.4 68.56 12.27 C69.26 13.04 69.96 13.8 70.68 14.59 C76.37 22.73 76.59 31.67 75.56 41.27 C73.17 52.95 67.18 62.29 57.56 69.27 C54.62 71.08 51.64 72.73 48.56 74.27 C49.19 79.45 50.79 83.84 52.72 88.63 C53.03 89.41 53.34 90.2 53.65 91 C54.64 93.49 55.63 95.98 56.62 98.46 C57.61 100.96 58.61 103.45 59.6 105.95 C60.21 107.5 60.83 109.05 61.45 110.6 C62.65 113.63 63.56 115.98 63.56 119.27 C59.46 119.3 55.37 119.32 51.28 119.33 C49.88 119.33 48.49 119.34 47.1 119.35 C45.1 119.36 43.1 119.37 41.1 119.37 C39.89 119.38 38.69 119.38 37.45 119.39 C34.56 119.27 34.56 119.27 32.56 118.27 C31.75 116.22 31.04 114.13 30.37 112.02 C29.93 110.67 29.49 109.32 29.06 107.96 C28.82 107.22 28.58 106.48 28.34 105.71 C26.87 101.14 25.37 96.58 23.87 92.02 C23.57 91.11 23.27 90.19 22.97 89.25 C22.68 88.38 22.4 87.52 22.11 86.63 C21.86 85.87 21.61 85.1 21.35 84.3 C20.54 82.02 20.54 82.02 18.56 79.27 C16.35 78.91 16.35 78.91 13.93 79.09 C13.11 79.11 12.3 79.14 11.46 79.17 C10.52 79.22 10.52 79.22 9.56 79.27 C6.63 85.24 5.53 91.05 4.49 97.59 C4.17 99.56 3.85 101.54 3.52 103.51 C3.38 104.38 3.25 105.25 3.1 106.14 C2.34 110.53 1.43 114.9 0.56 119.27 C-9.01 119.27 -18.58 119.27 -28.44 119.27 C-29.7 115.51 -28.94 112.76 -28.15 108.99 C-28 108.27 -27.86 107.55 -27.71 106.81 C-27.23 104.46 -26.74 102.12 -26.26 99.77 C-25.93 98.17 -25.6 96.56 -25.27 94.95 C-23.46 86.08 -21.61 77.23 -19.72 68.38 C-18.58 63.04 -17.57 57.68 -16.58 52.31 C-15.51 46.52 -14.3 40.77 -13.07 35.01 C-12.04 30.21 -11.07 25.4 -10.15 20.58 C-9.93 19.44 -9.7 18.3 -9.48 17.13 C-9.04 14.88 -8.61 12.63 -8.19 10.37 C-7.99 9.35 -7.8 8.33 -7.59 7.27 C-7.42 6.35 -7.24 5.44 -7.07 4.5 C-5.89 0.3 -3.97 0.02 0 0 Z " fill="#F3F5F5" transform="translate(383.44287109375,791.725341796875)"/>
<path d="M0 0 C4.96 3.3 8.72 7.09 12.31 11.81 C10.73 15.67 8.25 18.14 5.31 21.06 C4.43 21.95 3.54 22.85 2.62 23.77 C0.31 25.81 0.31 25.81 -1.69 25.81 C-2.02 26.8 -2.35 27.79 -2.69 28.81 C-7.38 28.03 -10.51 25.19 -14.25 22.41 C-18.6 19.56 -22.54 19.46 -27.69 19.81 C-31.65 21.18 -33.28 22.23 -35.69 25.69 C-36.92 28.67 -36.92 28.67 -36.18 31.2 C-34.12 34.8 -31.19 36.55 -27.75 38.69 C-27.08 39.12 -26.41 39.55 -25.72 40 C-23.72 41.28 -21.7 42.55 -19.69 43.81 C-17.65 45.1 -15.6 46.4 -13.56 47.69 C-12.73 48.2 -11.91 48.71 -11.05 49.24 C-6.75 52.1 -3.34 54.85 -0.5 59.19 C-0.01 59.92 0.48 60.65 0.98 61.4 C5.48 69.56 5.7 79.81 3.62 88.8 C-0.48 99.81 -8.41 107.88 -18.67 113.43 C-31.48 118.86 -47.32 119.19 -60.38 114.31 C-67.19 111.5 -73.09 107.59 -78.69 102.81 C-79.36 102.25 -80.03 101.69 -80.73 101.11 C-82.44 99.56 -82.44 99.56 -84.69 96.81 C-84.62 93.71 -83.67 92.79 -81.43 90.63 C-80.01 89.51 -80.01 89.51 -78.56 88.38 C-77.08 87.2 -77.08 87.2 -75.57 86.01 C-72.32 83.53 -69.05 81.13 -65.69 78.81 C-62.83 80.12 -60.72 81.55 -58.44 83.69 C-51.13 89.96 -45.66 91.26 -35.96 91.25 C-32.38 90.77 -30.46 90.12 -27.69 87.81 C-26.44 84.36 -26.67 81.32 -27.69 77.81 C-30.27 74.79 -33.31 72.86 -36.69 70.81 C-37.39 70.35 -38.1 69.89 -38.82 69.41 C-41.82 67.48 -44.82 65.75 -48 64.12 C-55.58 59.86 -63.56 52.97 -66.45 44.59 C-68.9 33.09 -67.67 22.62 -61.34 12.7 C-47.47 -6.96 -20.53 -12.18 0 0 Z " fill="#F3F5F5" transform="translate(669.6875,796.1875)"/>
<path d="M0 0 C0.66 0.33 1.32 0.66 2 1 C2 1.66 2 2.32 2 3 C2.66 3 3.32 3 4 3 C10.27 10.08 11.6 20.88 11.28 30.06 C9.9 44.56 6.23 57.24 -5 67 C-5.51 67.53 -6.02 68.06 -6.54 68.61 C-9.8 71.72 -14.1 72.16 -18.44 72.38 C-24.36 72.23 -27.95 69.94 -32.25 65.88 C-38.84 55.05 -38.29 42.22 -35.38 30.25 C-33.4 23.62 -30.79 17.79 -27 12 C-26.57 11.33 -26.14 10.67 -25.7 9.98 C-19.56 1.69 -9.96 -2.41 0 0 Z " fill="#000100" transform="translate(538,816)"/>
<path d="M0 0 C1.31 -0.03 2.63 -0.05 3.98 -0.08 C9.31 0.38 12.55 1.85 16.12 5.81 C18.98 9.94 19.44 13.29 18.81 18.25 C17.07 23.49 14.61 27.35 9.81 30.25 C4.34 32.18 -0.41 32.5 -6.12 32.38 C-6.9 32.37 -7.68 32.36 -8.49 32.35 C-10.39 32.32 -12.29 32.29 -14.19 32.25 C-15.32 28.85 -15.02 27.55 -14.26 24.1 C-14.04 23.1 -13.82 22.09 -13.6 21.05 C-13.36 20.01 -13.12 18.96 -12.88 17.88 C-12.65 16.83 -12.42 15.79 -12.19 14.72 C-8.94 0.07 -8.94 0.07 0 0 Z " fill="#000100" transform="translate(411.1875,814.75)"/>
<path d="M0 0 C3.23 -0.06 6.46 -0.09 9.69 -0.12 C10.6 -0.14 11.51 -0.16 12.45 -0.18 C21.22 -0.24 21.22 -0.24 25 2 C28.38 6.48 29.73 10.09 29.45 15.72 C28.66 19.72 26.94 23.15 24 26 C18.37 28.81 12.26 28.22 6.12 28.12 C5.06 28.12 3.99 28.11 2.88 28.1 C0.25 28.07 -2.37 28.04 -5 28 C-6.07 24.8 -5.94 23.72 -5.29 20.51 C-5.12 19.64 -4.94 18.77 -4.76 17.87 C-4.57 16.96 -4.38 16.06 -4.19 15.12 C-4.01 14.23 -3.83 13.33 -3.65 12.4 C-2.76 8.09 -1.86 4.02 0 0 Z " fill="#000100" transform="translate(282,860)"/>
<path d="M0 0 C1.42 0.06 2.84 0.13 4.27 0.21 C5.32 0.24 5.32 0.24 6.4 0.26 C11.99 0.57 14.58 2.18 18.52 6.15 C20.28 9.68 20.16 13.31 19.52 17.15 C17.28 21.55 14.54 23.73 10.02 25.59 C3.98 26.67 -2.38 26.51 -8.48 26.15 C-8.81 25.82 -9.14 25.49 -9.48 25.15 C-9.06 19.8 -8.05 14.55 -7.05 9.28 C-6.8 7.98 -6.55 6.68 -6.3 5.35 C-5.17 0.92 -4.62 0.2 0 0 Z " fill="#000100" transform="translate(295.484375,813.84765625)"/>
</svg>
